<svg xmlns="http://www.w3.org/2000/svg" xmlns:xlink="http://www.w3.org/1999/xlink" viewBox="0 0 500 500"><defs><style>.a{fill:none;}.b{fill:url(#a);}.c{fill:url(#b);}.d{fill:url(#c);}</style><linearGradient id="a" x1="73.16" y1="277.35" x2="418.76" y2="277.35" gradientUnits="userSpaceOnUse"><stop offset="0" stop-color="#265ae3"/><stop offset="1" stop-color="#082989"/></linearGradient><linearGradient id="b" x1="81.21" y1="222.68" x2="426.81" y2="222.68" xlink:href="#a"/><linearGradient id="c" x1="267.23" y1="219.37" x2="357.4" y2="219.37" xlink:href="#a"/></defs><rect class="a" width="500" height="500"/><path class="b" d="M381.76,162c23.46,35.43-37.7,117.22-136.6,182.68-64.11,42.43-128.33,67.58-172,70.37,43.05,5.26,120.46-22.17,198.07-73.54,102.25-67.68,166.13-151.27,142.68-186.7-12.19-18.42-45.59-20.2-89.21-8.14C352.17,143.52,372.67,148.26,381.76,162Z"/><path class="c" d="M118.24,338c-23.46-35.43,37.7-117.22,136.6-182.69C319,112.89,383.17,87.74,426.81,85c-43.05-5.26-120.46,22.17-198.07,73.54C126.49,226.18,62.61,309.76,86.06,345.19c12.19,18.42,45.59,20.2,89.21,8.14C147.83,356.49,127.33,351.75,118.24,338Z"/><path class="d" d="M292.24,168.74l11.49,42.39-36.5,24.46,44.51,1.3L322.17,270l7.1-8.33a119.69,119.69,0,0,0,23-40.69c8.69-27,3.7-44.34,3.7-44.34L326,196.42Z"/></svg>