<?xml version="1.0" encoding="utf-8"?>
<!-- Generator: Adobe Illustrator 24.0.1, SVG Export Plug-In . SVG Version: 6.00 Build 0)  -->
<svg version="1.1" id="图层_1" xmlns="http://www.w3.org/2000/svg" xmlns:xlink="http://www.w3.org/1999/xlink" x="0px" y="0px"
	 viewBox="0 0 500 500" style="enable-background:new 0 0 500 500;" xml:space="preserve">
<style type="text/css">
	.st0{fill:#FFFFFF;}
</style>
<g>
	<rect x="61" y="61" class="st0" width="378" height="378"/>
	<path class="st0" d="M384.2,145.1c24.4,36.8-39.2,121.8-142,189.9c-66.6,44.1-133.4,70.2-178.7,73.2c44.7,5.5,125.2-23,205.9-76.4
		C375.6,261.3,442,174.4,417.6,137.6c-12.7-19.1-47.4-21-92.7-8.5C353.4,125.9,374.7,130.8,384.2,145.1z"/>
	<g>
		<path class="st0" d="M274.4,139.2c59.5-36.1,117.4-57.4,158.1-60c-36.7-4.5-97.6,13.9-162.8,50.2L274.4,139.2z"/>
		<path class="st0" d="M182.9,207.7c18.3-16.8,39.3-33.6,62.6-49.6l2.7-16.1c-6.8,4.1-13.5,8.4-20.3,12.9
			c-27.8,18.4-52.9,38-74.4,57.5L182.9,207.7z"/>
		<path class="st0" d="M113.1,341.5c-15.7-23.7,5.1-67.5,49.4-113.8l-16.6-8.2c-55.4,52.5-83.5,103.5-66.3,129.5
			c12.7,19.1,47.4,21,92.7,8.5C143.8,360.7,122.5,355.8,113.1,341.5z"/>
	</g>
	<path class="st0" d="M222.9,334.2c3.5-2.2,6.9-4.4,10.4-6.7c73.2-48.5,125-106.2,135-145.9l-70.6,10.8l-41.6-85.6L240.2,201
		L145.8,216l86.7,43.2L222.9,334.2z"/>
</g>
</svg>
