<?xml version="1.0" encoding="utf-8"?>
<!-- Generator: Adobe Illustrator 24.0.1, SVG Export Plug-In . SVG Version: 6.00 Build 0)  -->
<svg version="1.1" id="图层_1" xmlns="http://www.w3.org/2000/svg" xmlns:xlink="http://www.w3.org/1999/xlink" x="0px" y="0px"
	 viewBox="0 0 500 500" style="enable-background:new 0 0 500 500;" xml:space="preserve">
<g>
	<path d="M386.3,151.4c24.4,36.8-39.2,121.8-142,189.9c-66.6,44.1-133.4,70.2-178.7,73.2c44.7,5.5,125.2-23,205.9-76.4
		C377.7,267.7,444.1,180.8,419.7,144c-12.7-19.1-47.4-21-92.7-8.5C355.5,132.2,376.8,137.2,386.3,151.4z"/>
	<g>
		<path d="M276.4,145.6c59.5-36.1,117.4-57.4,158.1-60c-36.7-4.5-97.6,13.9-162.8,50.2L276.4,145.6z"/>
		<path d="M185,214c18.3-16.8,39.3-33.6,62.6-49.6l2.7-16.1c-6.8,4.1-13.5,8.4-20.3,12.9c-27.8,18.4-52.9,38-74.4,57.5L185,214z"/>
		<path d="M115.1,347.8c-15.7-23.7,5.1-67.5,49.4-113.8l-16.6-8.2c-55.4,52.5-83.5,103.5-66.3,129.5c12.7,19.1,47.4,21,92.7,8.5
			C145.9,367,124.6,362.1,115.1,347.8z"/>
	</g>
	<path d="M225,340.5c3.5-2.2,6.9-4.4,10.4-6.7c73.2-48.5,125-106.2,135-145.9l-70.6,10.8l-41.6-85.6l-15.9,94.2l-94.4,15.1
		l86.7,43.2L225,340.5z"/>
</g>
</svg>
