<?xml version="1.0" encoding="utf-8"?>
<!-- Generator: Adobe Illustrator 24.0.1, SVG Export Plug-In . SVG Version: 6.00 Build 0)  -->
<svg version="1.1" id="图层_1" xmlns="http://www.w3.org/2000/svg" xmlns:xlink="http://www.w3.org/1999/xlink" x="0px" y="0px"
	 viewBox="0 0 792 357.6" style="enable-background:new 0 0 792 357.6;" xml:space="preserve">
<style type="text/css">
	.st0{fill:none;}
	.st1{fill:url(#SVGID_1_);}
	.st2{fill:url(#SVGID_2_);}
	.st3{fill:url(#SVGID_3_);}
	.st4{fill:url(#SVGID_4_);}
	.st5{fill:url(#SVGID_5_);}
	.st6{fill:#1C4BDE;}
</style>
<g>
	<g>
		<rect x="70.4" y="94.3" class="st0" width="169" height="169"/>
		
			<linearGradient id="SVGID_1_" gradientUnits="userSpaceOnUse" x1="71.5" y1="825.4613" x2="232.1533" y2="825.4613" gradientTransform="matrix(1 0 0 1 0 -640)">
			<stop  offset="0" style="stop-color:#265AE3"/>
			<stop  offset="1" style="stop-color:#082989"/>
		</linearGradient>
		<path class="st1" d="M214.9,131.9c10.9,16.5-17.5,54.5-63.5,84.9c-29.8,19.7-59.6,31.4-79.9,32.7c20,2.4,56-10.3,92.1-34.2
			c47.5-31.5,77.2-70.3,66.3-86.8c-5.7-8.6-21.2-9.4-41.5-3.8C201.1,123.3,210.7,125.5,214.9,131.9z"/>
		<g>
			
				<linearGradient id="SVGID_2_" gradientUnits="userSpaceOnUse" x1="164.3" y1="244.6481" x2="237.1" y2="244.6481" gradientTransform="matrix(1 0 0 -1 0 360)">
				<stop  offset="0" style="stop-color:#265AE3"/>
				<stop  offset="1" style="stop-color:#082989"/>
			</linearGradient>
			<path class="st2" d="M166.4,128.9c26.6-16.2,52.5-25.7,70.7-26.8c-16.4-2-43.6,6.2-72.8,22.5L166.4,128.9z"/>
			
				<linearGradient id="SVGID_3_" gradientUnits="userSpaceOnUse" x1="111.7508" y1="213.75" x2="154.0852" y2="213.75" gradientTransform="matrix(1 0 0 -1 0 360)">
				<stop  offset="0" style="stop-color:#265AE3"/>
				<stop  offset="1" style="stop-color:#082989"/>
			</linearGradient>
			<path class="st3" d="M124.9,159.9c8.2-7.5,17.6-15,28-22.2l1.2-7.2c-3,1.8-6,3.8-9.1,5.8c-12.4,8.2-23.7,17-33.3,25.7
				L124.9,159.9z"/>
			
				<linearGradient id="SVGID_4_" gradientUnits="userSpaceOnUse" x1="76.4402" y1="162.2673" x2="120.1996" y2="162.2673" gradientTransform="matrix(1 0 0 -1 0 360)">
				<stop  offset="0" style="stop-color:#265AE3"/>
				<stop  offset="1" style="stop-color:#082989"/>
			</linearGradient>
			<path class="st4" d="M93.7,219.7c-7-10.6,2.3-30.2,22.1-50.9l-7.4-3.7c-24.8,23.5-37.3,46.3-29.6,57.9c5.7,8.6,21.2,9.4,41.5,3.8
				C107.4,228.3,97.9,226.1,93.7,219.7z"/>
		</g>
		
			<linearGradient id="SVGID_5_" gradientUnits="userSpaceOnUse" x1="108.3" y1="194.4" x2="207.8" y2="194.4" gradientTransform="matrix(1 0 0 -1 0 360)">
			<stop  offset="0" style="stop-color:#265AE3"/>
			<stop  offset="1" style="stop-color:#082989"/>
		</linearGradient>
		<path class="st5" d="M142.8,216.5c1.5-1,3.1-2,4.6-3c32.7-21.7,55.9-47.5,60.4-65.3l-31.6,4.8l-18.6-38.3l-7.1,42.1l-42.2,6.7
			l38.8,19.3L142.8,216.5z"/>
	</g>
	<g>
		<path class="st6" d="M273.6,201.3c2.5,10.9,9.7,17.3,23.1,17.3c14.9,0,20.7-7.5,20.7-16.3c0-9.2-4.1-14.9-22.1-19.4
			c-17.3-4.3-24.8-9.9-24.8-21.7c0-10.7,7.8-20.8,25.3-20.8c18,0,25.6,11,26.6,20.9H316c-1.9-8.8-7.6-15.1-20.4-15.1
			c-11.8,0-18.2,5.5-18.2,14.6c0,9,5.4,12.5,20.4,16.2c23,5.7,26.4,14.9,26.4,24.8c0,12-8.8,22.4-27.7,22.4
			c-20.4,0-27.9-11.9-29.4-22.9H273.6z"/>
		<path class="st6" d="M331.3,164.9h10.9v-18.2h5.8v18.2h13.9v5.5H348v37.9c0,6.5,1.4,10.3,7,10.3c1.8,0,4.2-0.1,6.1-0.7v5.1
			c-2,0.8-4.8,1.1-7.2,1.1c-7.5,0-11.7-3.7-11.7-13.1v-40.6h-10.9V164.9z"/>
		<path class="st6" d="M413.9,212.2c0,5.1,0.5,9.2,0.8,11.1h-5.6c-0.5-1.4-0.8-4-1.1-9c-2,4.3-7.1,10.4-19.1,10.4
			c-13.5,0-19.4-8.8-19.4-17.5c0-12.8,9.9-18.7,27.4-18.7c4.9,0,8.8,0,11.1,0v-6c0-5.8-1.8-13.7-15.1-13.7c-11.8,0-13.5,6.2-14.8,11
			h-5.8c0.7-6.4,4.7-16.3,20.8-16.3c13.3,0,20.8,5.6,20.8,18.4L413.9,212.2L413.9,212.2z M408.1,193.5c-2.2,0-7.6,0-11.4,0
			c-13,0-21,3.4-21,13.4c0,7.4,5.3,12.4,13.4,12.4c16.7,0,19-11.1,19-23.7V193.5z"/>
		<path class="st6" d="M433.1,180.8c0-9.8-0.1-14-0.1-15.9h5.7c0.1,1.9,0.2,5.6,0.2,13.1c3.4-8.8,10.9-14,20.3-14.5v6.3
			c-12.1,0.8-20.3,9.2-20.3,23.1v30.4h-5.8L433.1,180.8L433.1,180.8z"/>
		<path class="st6" d="M471.4,207.2c2,7.6,7.4,12.1,16.6,12.1c10.4,0,14.6-4.8,14.6-11.3c0-6.7-2.8-9.9-15.9-13.1
			c-15.1-3.6-18.8-8.2-18.8-15.9c0-8.1,6.1-15.5,19.3-15.5c13.2,0,19.5,8.1,20.4,16.3h-5.8c-1.1-4.9-4.9-11-14.8-11
			c-10.2,0-13.1,5-13.1,9.7c0,5.4,2.8,8.1,14.4,10.9c16.5,4,20.5,9.3,20.5,18.1c0,10.6-8.6,17.2-20.9,17.2c-13.3,0-20.8-7-22.4-17.5
			H471.4z"/>
		<path class="st6" d="M522.9,164.9c8.6,30.1,13.7,47.4,14.6,52.5h0.1c0.9-4.7,6.8-23,15.9-52.5h6.3c10.9,36.1,14.1,46.5,15.2,51
			h0.1c1.6-6.4,4.3-15.2,15.1-51h6.2L578,223.3h-6.4c-6.3-20.7-13.9-46-15.1-51.4h-0.1c-1.2,5.7-7.8,26.6-15.4,51.4h-7l-17.2-58.4
			H522.9z"/>
		<path class="st6" d="M647.6,212.2c0,5.1,0.5,9.2,0.8,11.1h-5.6c-0.5-1.4-0.8-4-1.1-9c-2,4.3-7.1,10.4-19.1,10.4
			c-13.5,0-19.4-8.8-19.4-17.5c0-12.8,9.9-18.7,27.4-18.7c4.9,0,8.8,0,11.1,0v-6c0-5.8-1.8-13.7-15.1-13.7c-11.8,0-13.5,6.2-14.8,11
			H606c0.7-6.4,4.7-16.3,20.8-16.3c13.3,0,20.8,5.6,20.8,18.4V212.2z M641.9,193.5c-2.2,0-7.6,0-11.4,0c-13,0-21,3.4-21,13.4
			c0,7.4,5.3,12.4,13.4,12.4c16.7,0,19-11.1,19-23.7V193.5z"/>
		<path class="st6" d="M672.7,214.6v32h-5.8v-67.4c0-4.8,0-9.9-0.1-14.4h5.7c0.2,2.2,0.2,5.7,0.2,10.5c3.6-7,10-11.9,20.5-11.9
			c13.8,0,23.4,11.6,23.4,29.1c0,21-11.2,32.1-25.3,32.1C681,224.7,675.6,220.1,672.7,214.6z M710.4,192.8
			c0-13.5-6.5-23.7-18.1-23.7c-14.1,0-20,8.9-20,24.8c0,15.6,4.6,25.3,19.1,25.3C703.6,219.2,710.4,208.9,710.4,192.8z"/>
	</g>
</g>
</svg>
