<?xml version="1.0" encoding="utf-8"?>
<!-- Generator: Adobe Illustrator 26.0.2, SVG Export Plug-In . SVG Version: 6.00 Build 0)  -->
<svg version="1.0" id="Layer_1" xmlns="http://www.w3.org/2000/svg" xmlns:xlink="http://www.w3.org/1999/xlink" x="0px" y="0px"
	 viewBox="0 0 500 500" style="enable-background:new 0 0 500 500;" xml:space="preserve">
<style type="text/css">
	.st0{fill:#4119FF;}
	.st1{fill:#171717;}
	.st2{fill:#FFFFFF;}
	.st3{display:none;}
	.st4{display:inline;fill:none;stroke:#000000;stroke-width:0.25;stroke-miterlimit:10;stroke-dasharray:1;}
	.st5{display:inline;}
	.st6{fill:none;stroke:#000000;stroke-width:0.25;stroke-miterlimit:10;}
	.st7{fill:none;stroke:#000000;stroke-width:0.25;stroke-miterlimit:10;stroke-dasharray:1,1;}
	.st8{fill:none;stroke:#000000;stroke-width:0.25;stroke-miterlimit:10;stroke-dasharray:1;}
	.st9{fill:none;stroke:#000000;stroke-width:0.25;stroke-miterlimit:10;stroke-dasharray:0.9974,0.9974;}
	.st10{fill:#32F0C0;}
</style>
<circle class="st0" cx="250" cy="250" r="242.31"/>
<g>
	<path class="st2" d="M206.6,333.84c10.79-5.6,21.65-11.8,32.31-18.53c48.11-30.4,85.88-64.55,103.65-91.37h-41.54l-29.36-90.34
		l-29.36,90.34h-94.99l76.85,55.84L206.6,333.84z"/>
	<path class="st2" d="M191.32,319.51c-26.58,6.56-51.69,5.24-58.32-5.41c-8.02-12.87,4.38-36.73,30.35-63.74l-12.82-9.31
		c-36.61,34.06-55.5,65.62-45.49,81.67C114.57,338.03,148.08,335.66,191.32,319.51z"/>
	<path class="st2" d="M245.35,185.35c0.99-0.62,1.98-1.24,2.97-1.86l4.75-14.65c-10.14,5.28-20.45,11.18-30.77,17.7
		c-15.72,9.93-30.37,20.27-43.66,30.64h21.67C213.88,206.43,229.01,195.67,245.35,185.35z"/>
	<path class="st2" d="M381.88,130.68c-18.83-1.19-54.8,5.61-96.57,23.05l2.58,7.94C324.31,143.9,359.06,133.04,381.88,130.68z"/>
	<path class="st2" d="M394.82,181.66c-9.74-15.16-43.22-12.34-86.23,4.4c26.48-6.93,51.61-5.94,58.4,4.61
		c14.57,22.68-34.94,81.01-110.59,130.28c-49.78,32.41-104.15,52.83-135.78,56.53c27.9,1.38,93.14-15.27,158.81-58.03
		C358.83,267.74,410.5,206.05,394.82,181.66z"/>
</g>
</svg>
